<svg width="1200" height="630" viewBox="0 0 1200 630" xmlns="http://www.w3.org/2000/svg">
  <defs>
    <radialGradient id="bg" cx="50%" cy="50%" r="80%">
      <stop offset="0%" stop-color="#0a0c16"/>
      <stop offset="100%" stop-color="#04050d"/>
    </radialGradient>
    <radialGradient id="gL" cx="50%" cy="50%" r="50%">
      <stop offset="0%" stop-color="#4f46e5" stop-opacity="0.2"/>
      <stop offset="100%" stop-color="#4f46e5" stop-opacity="0"/>
    </radialGradient>
    <radialGradient id="gR" cx="50%" cy="50%" r="50%">
      <stop offset="0%" stop-color="#0891b2" stop-opacity="0.18"/>
      <stop offset="100%" stop-color="#0891b2" stop-opacity="0"/>
    </radialGradient>
    <filter id="blur" x="-100%" y="-100%" width="300%" height="300%">
      <feGaussianBlur stdDeviation="70"/>
    </filter>
  </defs>

  <rect width="1200" height="630" fill="url(#bg)"/>

  <ellipse cx="320" cy="280" rx="320" ry="280" fill="url(#gL)" filter="url(#blur)"/>
  <ellipse cx="880" cy="280" rx="320" ry="280" fill="url(#gR)" filter="url(#blur)"/>

  <!-- LEFT: vertical straight lines — sequential, ordered, handoff-based -->
  <!-- Dense cluster of vertical lines, tightly spaced -->
  <g opacity="1">
    <line x1="100" y1="140" x2="100" y2="460" stroke="#6366f1" stroke-width="1" opacity="0.5"/>
    <line x1="116" y1="160" x2="116" y2="440" stroke="#6366f1" stroke-width="1" opacity="0.45"/>
    <line x1="132" y1="148" x2="132" y2="452" stroke="#6366f1" stroke-width="1.5" opacity="0.5"/>
    <line x1="148" y1="135" x2="148" y2="465" stroke="#6366f1" stroke-width="1" opacity="0.4"/>
    <line x1="164" y1="155" x2="164" y2="445" stroke="#6366f1" stroke-width="1" opacity="0.48"/>
    <line x1="180" y1="142" x2="180" y2="458" stroke="#6366f1" stroke-width="1.5" opacity="0.55"/>
    <line x1="196" y1="165" x2="196" y2="435" stroke="#6366f1" stroke-width="1" opacity="0.42"/>
    <line x1="212" y1="152" x2="212" y2="448" stroke="#6366f1" stroke-width="1" opacity="0.46"/>
    <line x1="228" y1="138" x2="228" y2="462" stroke="#6366f1" stroke-width="2" opacity="0.6"/>
    <line x1="244" y1="168" x2="244" y2="432" stroke="#6366f1" stroke-width="1" opacity="0.4"/>
    <line x1="260" y1="145" x2="260" y2="455" stroke="#6366f1" stroke-width="1" opacity="0.45"/>
    <line x1="276" y1="158" x2="276" y2="442" stroke="#6366f1" stroke-width="1.5" opacity="0.5"/>
    <line x1="292" y1="135" x2="292" y2="465" stroke="#6366f1" stroke-width="1" opacity="0.38"/>
    <line x1="308" y1="162" x2="308" y2="438" stroke="#6366f1" stroke-width="1" opacity="0.44"/>
    <line x1="324" y1="148" x2="324" y2="452" stroke="#6366f1" stroke-width="1.5" opacity="0.52"/>
    <line x1="340" y1="172" x2="340" y2="428" stroke="#6366f1" stroke-width="1" opacity="0.4"/>
    <line x1="356" y1="140" x2="356" y2="460" stroke="#6366f1" stroke-width="1" opacity="0.46"/>
    <line x1="372" y1="155" x2="372" y2="445" stroke="#6366f1" stroke-width="2" opacity="0.55"/>
    <line x1="388" y1="165" x2="388" y2="435" stroke="#6366f1" stroke-width="1" opacity="0.42"/>
    <line x1="404" y1="142" x2="404" y2="458" stroke="#6366f1" stroke-width="1" opacity="0.44"/>
    <line x1="420" y1="152" x2="420" y2="448" stroke="#6366f1" stroke-width="1.5" opacity="0.5"/>
    <line x1="436" y1="138" x2="436" y2="462" stroke="#6366f1" stroke-width="1" opacity="0.38"/>
    <line x1="452" y1="162" x2="452" y2="438" stroke="#6366f1" stroke-width="1" opacity="0.44"/>
    <line x1="468" y1="148" x2="468" y2="452" stroke="#6366f1" stroke-width="1.5" opacity="0.48"/>
    <line x1="484" y1="168" x2="484" y2="432" stroke="#6366f1" stroke-width="1" opacity="0.4"/>
    <line x1="500" y1="145" x2="500" y2="455" stroke="#6366f1" stroke-width="1" opacity="0.42"/>
  </g>

  <!-- Centre gap -->

  <!-- RIGHT: circular/spiral lines — looping, cyclical, conversation-based -->
  <g opacity="1">
    <circle cx="850" cy="295" r="180" stroke="#0891b2" stroke-width="1" fill="none" opacity="0.2"/>
    <circle cx="850" cy="295" r="155" stroke="#0891b2" stroke-width="1.5" fill="none" opacity="0.28"/>
    <circle cx="850" cy="295" r="130" stroke="#0891b2" stroke-width="1" fill="none" opacity="0.22"/>
    <circle cx="850" cy="295" r="108" stroke="#0891b2" stroke-width="2" fill="none" opacity="0.35"/>
    <circle cx="850" cy="295" r="84" stroke="#0891b2" stroke-width="1.5" fill="none" opacity="0.3"/>
    <circle cx="850" cy="295" r="62" stroke="#0891b2" stroke-width="1" fill="none" opacity="0.25"/>
    <circle cx="850" cy="295" r="40" stroke="#0891b2" stroke-width="1.5" fill="none" opacity="0.28"/>
    <circle cx="850" cy="295" r="20" stroke="#0891b2" stroke-width="1" fill="none" opacity="0.22"/>
    <!-- Ellipses for depth -->
    <ellipse cx="850" cy="295" rx="200" ry="80" stroke="#0891b2" stroke-width="0.5" fill="none" opacity="0.12"/>
    <ellipse cx="850" cy="295" rx="160" ry="60" stroke="#0891b2" stroke-width="0.5" fill="none" opacity="0.1"/>
    <ellipse cx="850" cy="295" rx="120" ry="42" stroke="#0891b2" stroke-width="0.5" fill="none" opacity="0.1"/>
    <!-- Cross hairs through centre -->
    <line x1="650" y1="295" x2="1050" y2="295" stroke="#0891b2" stroke-width="0.5" opacity="0.12"/>
    <line x1="850" y1="95" x2="850" y2="495" stroke="#0891b2" stroke-width="0.5" opacity="0.12"/>
    <!-- Diagonal lines through rings -->
    <line x1="723" y1="168" x2="977" y2="422" stroke="#0891b2" stroke-width="0.5" opacity="0.1"/>
    <line x1="977" y1="168" x2="723" y2="422" stroke="#0891b2" stroke-width="0.5" opacity="0.1"/>
  </g>

  <!-- Thin dividing line in centre -->
  <line x1="600" y1="100" x2="600" y2="530" stroke="#1f2937" stroke-width="1" opacity="0.8"/>

  <!-- Text -->
  <text x="80" y="538" font-family="system-ui,-apple-system,sans-serif" font-size="11" font-weight="400" fill="#4b5563" letter-spacing="0.14em">RIFFT · FRAMEWORK COMPARISON</text>
  <text x="80" y="572" font-family="system-ui,-apple-system,sans-serif" font-size="22" font-weight="500" fill="#e5e7eb" letter-spacing="-0.02em">CrewAI vs AutoGen debugging — what breaks and why</text>
</svg>
